<?xml version="1.0" encoding="UTF-8"?>
<svg id="Layer_2" xmlns="http://www.w3.org/2000/svg" version="1.1" viewBox="0 0 500 500">
  <!-- Generator: Adobe Illustrator 30.3.0, SVG Export Plug-In . SVG Version: 2.1.3 Build 182)  -->
  <defs>
    <style>
      .st0 {
        fill: #fff;
      }

      .st1 {
        fill: #1c2f35;
      }
    </style>
  </defs>
  <rect class="st1" x="38.56" y="38.56" width="422.89" height="422.89" rx="71.97" ry="71.97"/>
  <g>
    <path class="st0" d="M68.57,174.79c0-4.36,1.55-7.92,4.65-10.66,3.1-2.74,7.06-4.11,11.9-4.11s8.97,1.4,12.03,4.2c3.07,2.8,4.6,6.33,4.6,10.57s-1.56,7.89-4.69,10.75c-3.13,2.86-7.11,4.29-11.94,4.29s-8.73-1.44-11.86-4.34c-3.13-2.89-4.69-6.46-4.69-10.71ZM70.69,304.24v-97.86h28.49v97.86h-28.49Z"/>
    <path class="st0" d="M198.11,300.61c-6.84,4.01-16.58,6.02-29.2,6.02-14.92,0-26.99-4.54-36.19-13.63-9.2-9.08-13.8-20.85-13.8-35.3,0-16.63,4.95-29.74,14.86-39.33,9.91-9.58,23.12-14.38,39.64-14.38,11.15,0,19.41,1.53,24.77,4.6v24.51c-6.55-4.78-13.69-7.17-21.41-7.17-8.73,0-15.74,2.65-21.01,7.96-5.28,5.31-7.92,12.59-7.92,21.85s2.51,16.03,7.52,21.19c5.01,5.16,11.83,7.74,20.44,7.74,7.61,0,15.04-2.42,22.3-7.26v23.18Z"/>
    <path class="st0" d="M212.53,255.75c0-16.1,4.82-28.76,14.47-37.96,9.64-9.2,22.61-13.8,38.89-13.8s28.25,4.53,37.52,13.58c9.26,9.06,13.89,21.22,13.89,36.5,0,16.04-4.75,28.82-14.25,38.31s-22.36,14.25-38.58,14.25-28.56-4.56-37.91-13.67c-9.35-9.11-14.02-21.51-14.02-37.21ZM241.46,255.4c0,19.52,7.96,29.29,23.89,29.29s22.92-10.03,22.92-30.08-7.7-28.67-23.09-28.67c-7.49,0-13.32,2.57-17.47,7.7s-6.24,12.39-6.24,21.77Z"/>
    <path class="st0" d="M430.46,304.24h-28.4v-54.59c0-15.81-5.69-23.71-17.08-23.71-5.43,0-9.94,2.11-13.54,6.33-3.6,4.22-5.4,9.6-5.4,16.15v55.83h-28.58v-97.86h28.58v15.57h.35c7.14-11.97,17.64-17.96,31.5-17.96,21.71,0,32.56,13.45,32.56,40.35v59.9Z"/>
  </g>
</svg>